<svg width="80" height="45" viewBox="0 0 80 45" fill="#FCF2E9" xmlns="http://www.w3.org/2000/svg">
<path d="M31.9347 42.2009L15.4244 22.3816C14.9891 21.859 14.9704 21.1035 15.3737 20.5592L28.8954 2.34301C29.6459 1.33025 28.8607 -0.104951 27.6162 0.00607338L12.305 1.36545C11.3222 1.4521 10.4863 2.13179 10.1872 3.08769L9.65037 7.05209C9.3833 8.04319 8.1067 8.20566 7.86901 7.06563L7.23071 3.6374C6.86216 2.56506 6.45888 1.88537 5.34253 1.98556L1.82789 2.29698C1.08276 2.36197 0.51123 2.99562 0.51123 3.75384V41.1259C0.51123 41.9328 1.15754 42.5882 1.95341 42.5882H7.70076C8.49663 42.5882 9.14294 41.9328 9.14294 41.1259V34.83C9.14294 33.476 10.7988 32.8505 11.6748 33.8714L20.4427 44.1046C20.7178 44.4241 21.113 44.6083 21.5323 44.6083H30.829C32.0575 44.6083 32.7226 43.1541 31.932 42.2009H31.9347Z" fill="#FCF2E9"/>
<path d="M43.2796 16.2048H36.5308C35.7166 16.2048 35.0565 16.8741 35.0565 17.6996V43.1108C35.0565 43.9363 35.7166 44.6055 36.5308 44.6055H43.2796C44.0938 44.6055 44.7538 43.9363 44.7538 43.1108V17.6996C44.7538 16.8741 44.0938 16.2048 43.2796 16.2048Z" fill="#FCF2E9"/>
<path d="M50.0418 42.079V1.86096C50.0418 1.03504 50.7015 0.366188 51.5161 0.366188H58.0406C58.6335 0.366188 59.1676 0.726341 59.4 1.27876L65.0966 14.9348C65.7242 16.4377 67.9302 15.9828 67.9302 14.3526V5.00486C67.9302 4.2331 68.5097 3.58591 69.2682 3.5155L77.8759 2.70312C78.7412 2.62189 79.489 3.31241 79.489 4.19248V42.052C79.489 42.7885 78.9575 43.4167 78.2391 43.5305L69.0198 44.9819C68.3735 45.0848 67.7379 44.7409 67.4575 44.1398L61.8276 32.0056C61.1252 30.4945 58.8792 31.1092 59.0234 32.7719L59.9261 43.2055C60.0116 44.1858 59.1543 44.9819 58.1982 44.8086L51.257 43.5521C50.5546 43.4249 50.0418 42.8048 50.0418 42.079Z" fill="#FCF2E9"/>
<path d="M39.9038 12.059C43.0102 12.059 45.5283 10.0271 45.5283 7.52052C45.5283 5.01399 43.0102 2.98204 39.9038 2.98204C36.7975 2.98204 34.2793 5.01399 34.2793 7.52052C34.2793 10.0271 36.7975 12.059 39.9038 12.059Z" fill="#FCF2E9"/>
</svg>
