<svg width="45" height="24" viewBox="0 0 45 24" fill="none" xmlns="http://www.w3.org/2000/svg">
<path d="M17.796 22.5072L8.44575 11.9369C8.19921 11.6581 8.18863 11.2552 8.41702 10.9649L16.0748 1.24961C16.4998 0.709465 16.0551 -0.0559741 15.3503 0.00323914L6.67916 0.72824C6.12257 0.774456 5.64916 1.13696 5.47976 1.64677L5.17575 3.76111C5.0245 4.2897 4.30153 4.37635 4.16691 3.76834L3.80543 1.93995C3.5967 1.36803 3.36832 1.00553 2.7361 1.05897L0.745658 1.22505C0.323673 1.25972 0 1.59766 0 2.00205V21.9338C0 22.3642 0.366023 22.7137 0.816745 22.7137H4.07163C4.52235 22.7137 4.88837 22.3642 4.88837 21.9338V18.576C4.88837 17.8539 5.82612 17.5203 6.32221 18.0647L11.2877 23.5225C11.4435 23.6929 11.6674 23.7911 11.9048 23.7911H17.1698C17.8655 23.7911 18.2422 23.0155 17.7945 22.5072H17.796Z" fill="#F58136"/>
<path d="M24.2209 8.64258H20.3988C19.9377 8.64258 19.5639 8.9995 19.5639 9.43979V22.9924C19.5639 23.4327 19.9377 23.7896 20.3988 23.7896H24.2209C24.682 23.7896 25.0558 23.4327 25.0558 22.9924V9.43979C25.0558 8.9995 24.682 8.64258 24.2209 8.64258Z" fill="#F58136"/>
<path d="M28.0505 22.4422V0.992513C28.0505 0.552024 28.4241 0.1953 28.8854 0.1953H32.5805C32.9162 0.1953 33.2187 0.387382 33.3503 0.682004L36.5765 7.96523C36.9319 8.76678 38.1812 8.52415 38.1812 7.65473V2.66926C38.1812 2.25765 38.5094 1.91248 38.939 1.87493L43.8137 1.44167C44.3038 1.39834 44.7273 1.76662 44.7273 2.23599V22.4277C44.7273 22.8205 44.4263 23.1556 44.0194 23.2163L38.7983 23.9904C38.4323 24.0452 38.0723 23.8618 37.9135 23.5412L34.7252 17.0696C34.3274 16.2638 33.0554 16.5916 33.137 17.4783L33.6483 23.0429C33.6967 23.5658 33.2112 23.9904 32.6697 23.8979L28.7387 23.2278C28.3409 23.1599 28.0505 22.8292 28.0505 22.4422Z" fill="#F58136"/>
<path d="M22.3091 6.43147C24.0683 6.43147 25.4944 5.34776 25.4944 4.01094C25.4944 2.67413 24.0683 1.59042 22.3091 1.59042C20.5499 1.59042 19.1238 2.67413 19.1238 4.01094C19.1238 5.34776 20.5499 6.43147 22.3091 6.43147Z" fill="#F58136"/>
</svg>
